<svg width="110" height="33" viewBox="0 0 110 33" fill="none" xmlns="http://www.w3.org/2000/svg">
<path d="M54.4267 24.4569H51.128L43.6589 13.1708V24.4569H40.3603V7.98721H43.6589L51.128 19.2969V7.98721H54.4267V24.4569ZM56.367 17.8832C56.367 16.5637 56.6262 15.3935 57.1446 14.3725C57.6787 13.3515 58.3934 12.5661 59.2887 12.0163C60.1998 11.4665 61.2129 11.1916 62.3282 11.1916C63.3021 11.1916 64.1503 11.388 64.8729 11.7807C65.6111 12.1734 66.2002 12.6682 66.64 13.2651V11.4037H69.9622V24.4569H66.64V22.5484C66.2159 23.161 65.6268 23.6715 64.8729 24.08C64.1346 24.4726 63.2785 24.669 62.3046 24.669C61.2051 24.669 60.1998 24.3863 59.2887 23.8208C58.3934 23.2553 57.6787 22.462 57.1446 21.441C56.6262 20.4043 56.367 19.2184 56.367 17.8832ZM66.64 17.9303C66.64 17.1292 66.4829 16.4459 66.1688 15.8804C65.8546 15.2992 65.4305 14.8594 64.8964 14.561C64.3624 14.2468 63.789 14.0897 63.1764 14.0897C62.5638 14.0897 61.9983 14.239 61.48 14.5374C60.9616 14.8359 60.5375 15.2757 60.2076 15.8569C59.8935 16.4223 59.7364 17.0978 59.7364 17.8832C59.7364 18.6686 59.8935 19.3597 60.2076 19.9566C60.5375 20.5378 60.9616 20.9855 61.48 21.2997C62.014 21.6138 62.5795 21.7709 63.1764 21.7709C63.789 21.7709 64.3624 21.6217 64.8964 21.3232C65.4305 21.0091 65.8546 20.5692 66.1688 20.0038C66.4829 19.4226 66.64 18.7314 66.64 17.9303ZM88.9233 11.2152C90.5255 11.2152 91.8135 11.71 92.7874 12.6996C93.777 13.6735 94.2718 15.0401 94.2718 16.7993V24.4569H90.9731V17.247C90.9731 16.226 90.714 15.4485 90.1956 14.9144C89.6772 14.3646 88.9704 14.0897 88.075 14.0897C87.1797 14.0897 86.465 14.3646 85.9309 14.9144C85.4125 15.4485 85.1534 16.226 85.1534 17.247V24.4569H81.8547V17.247C81.8547 16.226 81.5955 15.4485 81.0772 14.9144C80.5588 14.3646 79.8519 14.0897 78.9566 14.0897C78.0455 14.0897 77.323 14.3646 76.7889 14.9144C76.2705 15.4485 76.0114 16.226 76.0114 17.247V24.4569H72.7127V11.4037H76.0114V12.9823C76.4355 12.4325 76.9774 12.0006 77.6371 11.6864C78.3126 11.3723 79.0508 11.2152 79.8519 11.2152C80.873 11.2152 81.784 11.4351 82.5851 11.8749C83.3862 12.299 84.0067 12.9116 84.4465 13.7127C84.8706 12.9588 85.4832 12.354 86.2843 11.8985C87.1011 11.4429 87.9808 11.2152 88.9233 11.2152ZM109.065 17.6476C109.065 18.1188 109.034 18.5429 108.971 18.9199H99.4283C99.5069 19.8624 99.8367 20.6007 100.418 21.1347C100.999 21.6688 101.714 21.9358 102.562 21.9358C103.787 21.9358 104.659 21.4096 105.177 20.3572H108.735C108.358 21.6138 107.636 22.6505 106.568 23.4673C105.499 24.2684 104.188 24.669 102.633 24.669C101.376 24.669 100.245 24.3941 99.2398 23.8443C98.2502 23.2788 97.4727 22.4856 96.9072 21.4646C96.3574 20.4436 96.0826 19.2655 96.0826 17.9303C96.0826 16.5794 96.3574 15.3935 96.9072 14.3725C97.457 13.3515 98.2267 12.5661 99.2163 12.0163C100.206 11.4665 101.345 11.1916 102.633 11.1916C103.874 11.1916 104.981 11.4587 105.955 11.9927C106.945 12.5268 107.706 13.2886 108.24 14.2782C108.79 15.2521 109.065 16.3752 109.065 17.6476ZM105.649 16.7051C105.633 15.8569 105.327 15.1814 104.73 14.6788C104.133 14.1604 103.402 13.9012 102.539 13.9012C101.722 13.9012 101.031 14.1526 100.465 14.6552C99.9153 15.1422 99.5776 15.8254 99.4519 16.7051H105.649Z" fill="white"/>
<path d="M15.9015 29.394C24.1359 29.394 30.8113 23.0728 30.8113 15.2751C30.8113 7.47744 24.1359 1.15619 15.9015 1.15619C7.66704 1.15619 0.991699 7.47744 0.991699 15.2751C0.991699 23.0728 7.66704 29.394 15.9015 29.394Z" fill="#3772FF"/>
<path d="M8.95503 12.8364C10.3624 12.8364 11.6475 12.8364 13.0181 12.8364C12.5788 12.225 12.1919 11.6664 11.7763 11.1276C11.7144 11.0468 11.5184 11.0336 11.3842 11.0328C10.2515 11.0253 9.11904 11.0402 7.98699 11.0171C7.81098 11.0138 7.58733 10.8916 7.47496 10.758C7.16222 10.3834 6.8953 9.97254 6.57056 9.52039C6.74984 9.5072 6.87093 9.48988 6.99203 9.48988C8.73466 9.48823 10.4773 9.49481 12.2192 9.48327C12.4996 9.48162 12.6625 9.56743 12.8192 9.78855C13.8214 11.2027 14.8389 12.6078 15.8844 14.0608C15.9837 13.9444 16.0685 13.8603 16.1365 13.7654C17.094 12.437 18.0435 11.1045 19.0115 9.78359C19.1108 9.64829 19.3155 9.50142 19.4733 9.49976C21.3029 9.47996 23.1321 9.4874 24.9616 9.48905C25.0289 9.48905 25.0958 9.50638 25.2318 9.52452C24.8772 10.0204 24.5652 10.4783 24.2227 10.9148C24.1583 10.9973 23.9699 11.0229 23.8394 11.0237C22.7066 11.0319 21.5742 11.036 20.4414 11.0229C20.1799 11.0195 20.0206 11.0922 19.8785 11.3058C19.549 11.8034 19.1875 12.2819 18.7904 12.8364C20.1574 12.8364 21.4487 12.8364 22.8477 12.8364C22.4611 13.3784 22.1429 13.8463 21.7934 14.2926C21.7291 14.3743 21.5382 14.3958 21.4051 14.3966C20.3308 14.4056 19.2555 14.4172 18.182 14.3958C17.8111 14.3883 17.5783 14.4824 17.3682 14.7901C16.8925 15.489 16.8787 15.4717 17.3682 16.1309C17.8442 16.7711 18.3136 17.4163 18.7675 18.0715C19.5806 19.2447 19.5188 20.7735 18.63 21.8552C17.7187 22.9649 16.1939 23.408 14.8077 22.9658C13.4221 22.5235 12.4665 21.2967 12.457 19.9006C12.4516 19.2133 12.6581 18.5756 13.0807 18.003C13.6298 17.2596 14.156 16.5013 14.7084 15.7604C14.8659 15.5492 14.8408 15.4081 14.7197 15.1779C14.3876 14.5467 13.9153 14.3223 13.1625 14.3834C12.2548 14.4568 11.3348 14.4147 10.4198 14.39C10.2413 14.385 10.0129 14.2712 9.90126 14.1367C9.58342 13.7538 9.31141 13.3339 8.95503 12.8364ZM15.9655 16.8702C15.887 16.9262 15.8444 16.9436 15.8226 16.9741C15.3302 17.6531 14.8233 18.3231 14.3546 19.017C13.8989 19.6902 14.048 20.5731 14.668 21.1242C15.2851 21.6721 16.2016 21.7397 16.9136 21.2884C17.5958 20.8561 17.9573 19.9831 17.5809 19.3C17.1172 18.4576 16.5143 17.6837 15.9655 16.8702Z" fill="white"/>
</svg>
